<svg id="visual" viewBox="0 0 1000 1000" width="1000" height="1000" xmlns="http://www.w3.org/2000/svg" xmlns:xlink="http://www.w3.org/1999/xlink" version="1.1"><rect width="1000" height="1000" fill="#1b1c21"></rect><g><g transform="translate(143 945)"><path d="M0 -212L149.9 -149.9L212 0L149.9 149.9L0 212L-149.9 149.9L-212 0L-149.9 -149.9Z" fill="#fff"></path></g><g transform="translate(306 217)"><path d="M0 -123L87 -87L123 0L87 87L0 123L-87 87L-123 0L-87 -87Z" fill="#fff"></path></g><g transform="translate(765 682)"><path d="M0 -159L112.4 -112.4L159 0L112.4 112.4L0 159L-112.4 112.4L-159 0L-112.4 -112.4Z" fill="#fff"></path></g><g transform="translate(983 53)"><path d="M0 -78L55.2 -55.2L78 0L55.2 55.2L0 78L-55.2 55.2L-78 0L-55.2 -55.2Z" fill="#fff"></path></g></g></svg>