<svg id="visual" viewBox="0 0 2000 2000" width="2000" height="2000" xmlns="http://www.w3.org/2000/svg" xmlns:xlink="http://www.w3.org/1999/xlink" version="1.1"><rect width="2000" height="2000" fill="#1b1c21"></rect><g><g transform="translate(1668 1496)"><path d="M0 -171L120.9 -120.9L171 0L120.9 120.9L0 171L-120.9 120.9L-171 0L-120.9 -120.9Z" fill="#fff"></path></g><g transform="translate(91 1644)"><path d="M0 -137L96.9 -96.9L137 0L96.9 96.9L0 137L-96.9 96.9L-137 0L-96.9 -96.9Z" fill="#fff"></path></g><g transform="translate(247 916)"><path d="M0 -153L108.2 -108.2L153 0L108.2 108.2L0 153L-108.2 108.2L-153 0L-108.2 -108.2Z" fill="#fff"></path></g><g transform="translate(908 1383)"><path d="M0 -142L100.4 -100.4L142 0L100.4 100.4L0 142L-100.4 100.4L-142 0L-100.4 -100.4Z" fill="#fff"></path></g><g transform="translate(850 77)"><path d="M0 -165L116.7 -116.7L165 0L116.7 116.7L0 165L-116.7 116.7L-165 0L-116.7 -116.7Z" fill="#fff"></path></g><g transform="translate(1631 840)"><path d="M0 -160L113.1 -113.1L160 0L113.1 113.1L0 160L-113.1 113.1L-160 0L-113.1 -113.1Z" fill="#fff"></path></g><g transform="translate(671 1030)"><path d="M0 -138L97.6 -97.6L138 0L97.6 97.6L0 138L-97.6 97.6L-138 0L-97.6 -97.6Z" fill="#fff"></path></g></g></svg>